# AST/ASF file generated using VICON BodyLanguage
# -----------------------------------------------
:version 1.10
:name VICON
:units
  mass 1.0
  length 0.45
  angle deg
:documentation
   .ast/.asf automatically generated from VICON data using
   VICON BodyBuilder and BodyLanguage model FoxedUp or BRILLIANT.MOD
:root
   order TX TY TZ RX RY RZ
   axis XYZ
   position 0 0 0  
   orientation 0 0 0 
:bonedata
  begin
     id 1 
     name lhipjoint
     direction 0.621036 -0.695554 0.361275 
     length 2.46325 
     axis 0 0 0  XYZ
  end
  begin
     id 2 
     name lfemur
     direction 0.34202 -0.939693 0  
     length 6.54784  
     axis 0 0 20  XYZ
    dof rx ry rz
    limits (-160.0 20.0)
           (-70.0 70.0)
           (-60.0 70.0)
  end
  begin
     id 3 
     name ltibia
     direction 0.34202 -0.939693 0   
     length 7.84737   
     axis 0 0 20   XYZ
    dof rx
    limits (-10.0 170.0)
  end
  begin
     id 4 
     name lfoot
     direction 0.0790693 -0.217241 0.97291   
     length 2.59747   
     axis -90 7.62852e-016 20   XYZ
    dof rx rz
    limits (-45.0 90.0)
           (-70.0 20.0)
  end
  begin
     id 5 
     name ltoes
     direction 1.53572e-011 -4.21898e-011 1   
     length 1.29919   
     axis -90 7.62852e-016 20   XYZ
    dof rx
    limits (-90.0 20.0)
  end
  begin
     id 6 
     name rhipjoint
     direction -0.602353 -0.708375 0.367935   
     length 2.41867  
     axis 0 0 0  XYZ 
  end
  begin
     id 7 
     name rfemur
     direction -0.34202 -0.939693 0   
     length 6.92065   
     axis 0 0 -20   XYZ
    dof rx ry rz
    limits (-160.0 20.0)
           (-70.0 70.0)
           (-70.0 60.0)
  end
  begin
     id 8 
     name rtibia
     direction -0.34202 -0.939693 0   
     length 7.88883   
     axis 0 0 -20   XYZ
    dof rx
    limits (-10.0 170.0)
 end
 begin
     id 9 
     name rfoot
     direction -0.0768692 -0.211196 0.974416   
     length 2.43714  
     axis -90 -7.62852e-016 -20   XYZ
    dof rx rz
    limits (-45.0 90.0)
           (-20.0 70.0)
  end
  begin
     id 10 
     name rtoes
     direction -1.53575e-011 -4.21933e-011 1   
     length 1.22113   
     axis -90 -7.62852e-016 -20   XYZ
    dof rx
    limits (-90.0 20.0)
  end
  begin
     id 11 
     name lowerback
     direction 0.0197937 0.98943 -0.143655   
     length 2.16931   
     axis 0 0 0   XYZ
    dof rx ry rz
    limits (-20.0 45.0)
           (-30.0 30.0)
           (-30.0 30.0)
  end
  begin
     id 12 
     name upperback
     direction -0.00183968 0.999975 0.00684288   
     length 2.17221   
     axis 0 0 0   XYZ
    dof rx ry rz
    limits (-20.0 45.0)
           (-30.0 30.0)
           (-30.0 30.0)
  end
  begin
     id 13 
     name thorax
     direction -0.00950244 0.997208 0.0740685   
     length 2.22549   
     axis 0 0 0   XYZ
    dof rx ry rz
    limits (-20.0 45.0)
           (-30.0 30.0)
           (-30.0 30.0)
  end
  begin
     id 14 
     name lowerneck
     direction 0.0218238 0.996215 0.0841425   
     length 1.77269   
     axis 0 0 0   XYZ
    dof rx ry rz
    limits (-20.0 45.0)
           (-30.0 30.0)
           (-30.0 30.0)
  end
  begin
     id 15 
     name upperneck
     direction -0.00430652 0.994214 -0.107332   
     length 1.76534   
     axis 0 0 0   XYZ
    dof rx ry rz
    limits (-20.0 45.0)
           (-30.0 30.0)
           (-30.0 30.0)
  end
  begin
     id 16
     name head
     direction -0.00328946 0.998959 -0.0454998  
     length 1.82634  
     axis 0 0 0   XYZ
    dof rx ry rz
    limits (-20.0 45.0)
           (-30.0 30.0)
           (-30.0 30.0)
  end
  begin
     id 17 
     name lclavicle
     direction 0.970962 0.239191 0.00450212  
     length 3.84872  
     axis 0 0 0   XYZ
    dof ry rz
    limits (-20.0 10.0)
           (0.0 20.0)
  end
  begin
     id 18 
     name lhumerus
     direction 1 -4.48966e-011 5.74696e-028   
     length 5.22771   
     axis 180 -30 -90   XYZ
    dof rx ry rz
    limits (-60.0 90.0)
           (-90.0 90.0)
           (-90.0 90.0)
  end
  begin
     id 19
     name lradius
     direction 1 -4.4896e-011 4.25109e-027   
     length 3.45251   
     axis 180 -30 -90   XYZ
    dof rx
    limits (-10.0 170.0)
  end
  begin
     id 20
     name lwrist
     direction 1 -4.48971e-011 1.15382e-027   
     length 1.72626   
     axis -5.52449e-016 90 90   XYZ
    dof ry
    limits (-180.0 0.0)
 end
  begin
     id 21 
     name lhand
     direction 1 -4.49034e-011 2.30765e-027   
     length 0.552119   
     axis -1.47248e-015 90 90   XYZ
    dof rx rz
    limits (-90.0 90.0)
           (-45.0 45.0)
  end
  begin
     id 22 
     name lfingers
     direction 1 -4.48951e-011 4.61529e-027   
     length 0.445133   
     axis -2.94495e-015 90 90   XYZ
    dof rx
    limits (0.0 90.0)
  end
  begin
     id 23
     name lthumb
     direction 0.707107 -6.34991e-011 0.707107   
     length 0.639124   
     axis -90 45 2.85299e-015   XYZ
    dof rx rz
    limits (-45.0 45.0)
           (-45.0 45.0)
  end
  begin
     id 24 
     name rclavicle
     direction -0.97424 0.222511 -0.0366699   
     length 3.73439  
     axis 0 0 0   XYZ 
    dof ry rz
    limits (-10.0 20.0)
           (-20.0 0.0)
  end
  begin
     id 25 
     name rhumerus
     direction -1 -4.48956e-011 -4.97258e-028  
     length 5.2398   
     axis 180 30 90   XYZ
    dof rx ry rz
    limits (-90.0 60.0)
           (-90.0 90.0)
           (-90.0 90.0)
  end
  begin
     id 26 
     name rradius
     direction -1 -4.4897e-011 -1.72611e-027   
     length 3.48042   
     axis 180 30 90   XYZ
    dof rx
    limits (-10.0 170.0)
  end
  begin
     id 27 
     name rwrist
     direction -1 -4.48976e-011 1.15382e-027   
     length 1.74021   
     axis -5.52449e-016 -90 -90   XYZ
    dof ry
    limits (-180.0 0.0)
  end
  begin
     id 28
     name rhand
     direction -1 -4.48963e-011 2.30765e-027   
     length 0.618713   
     axis -1.47248e-015 -90 -90   XYZ
    dof rx rz
    limits (-90.0 90.0)
           (-45.0 45.0)
  end
  begin
     id 29
     name rfingers
     direction -1 -4.4888e-011 4.61529e-027   
     length 0.498823   
     axis -2.94495e-015 -90 -90   XYZ
    dof rx
    limits (0.0 90.0)
  end
  begin
     id 30
     name rthumb
     direction -0.707107 -6.34968e-011 0.707107   
     length 0.716213   
     axis -90 -45 -2.85299e-015   XYZ
    dof rx rz
    limits (-45.0 45.0)
           (-45.0 45.0)
  end
:hierarchy
  begin
    root lhipjoint rhipjoint lowerback
    lhipjoint lfemur
    lfemur ltibia
    ltibia lfoot
    lfoot ltoes
    rhipjoint rfemur
    rfemur rtibia
    rtibia rfoot
    rfoot rtoes
    lowerback upperback
    upperback thorax
    thorax lowerneck lclavicle rclavicle
    lowerneck upperneck
    upperneck head
    lclavicle lhumerus
    lhumerus lradius
    lradius lwrist
    lwrist lhand lthumb
    lhand lfingers
    rclavicle rhumerus
    rhumerus rradius
    rradius rwrist
    rwrist rhand rthumb
    rhand rfingers
  end

#!OML:ASF G:\JayActor3\Patient Classification 1\Patient 1\Session 5\male.ASF
:FULLY-SPECIFIED
:DEGREES
315
root 33.0777 13.9931 -4.44673 -173.754 89.3589 172.889
lowerback 32.0389 -1.77754 0.339993
upperback 7.59616 -1.4478 -0.653828
thorax -8.91922 -0.370007 -0.434512
lowerneck -4.72275 -0.185441 2.39687
upperneck -14.5384 0.249857 0.845864
head -3.91523 0.164156 -0.152664
rclavicle 3.27995e-014 3.97569e-016
rhumerus -21.4181 7.72554 -85.5864
rradius 50.6072
rwrist -5.55536
rhand -21.6076 -8.60546
rfingers 7.12502
rthumb 4.78769 -38.5314
lclavicle 3.27995e-014 3.97569e-016
lhumerus -20.2946 -7.05669 83.2096
lradius 39.7552
lwrist 23.3654
lhand -20.0741 11.8923
lfingers 7.12502
lthumb 6.26828 41.7795
rfemur -74.6777 -4.04062 26.0713
rtibia 67.1821
rfoot -8.26823 -15.0698
rtoes 6.62478
lfemur -45.9627 10.0763 -24.0647
ltibia 84.4125
lfoot -29.1922 -3.63443
ltoes -24.4787
316
root 32.9698 14.0104 -4.48586 -164.694 89.6757 181.948
lowerback 32.091 -1.72557 0.303625
upperback 7.61517 -1.39552 -0.672773
thorax -8.92067 -0.345148 -0.454458
lowerneck -4.78333 -0.155007 2.39277
upperneck -14.4935 0.282206 0.799593
head -3.88736 0.182379 -0.16767
rclavicle 6.75868e-015 -1.21259e-014
rhumerus -21.3705 7.76719 -85.6202
rradius 50.6396
rwrist -5.49392
rhand -21.5919 -8.59063
rfingers 7.12502
rthumb 4.80279 -38.5162
lclavicle 6.75868e-015 -1.21259e-014
lhumerus -20.2547 -6.99352 83.2062
lradius 39.7316
lwrist 23.3236
lhand -20.0437 11.8651
lfingers 7.12502
lthumb 6.2976 41.7515
rfemur -74.8945 -3.86721 25.8293
rtibia 66.7282
rfoot -7.03696 -14.9414
rtoes 6.14269
lfemur -46.1259 10.1046 -24.364
ltibia 83.9752
lfoot -29.5014 -3.13019
ltoes -24.1577
317
root 32.8621 14.028 -4.52557 -74.9606 89.9031 271.655
lowerback 32.1321 -1.6736 0.259297
upperback 7.62955 -1.34711 -0.694467
thorax -8.92222 -0.32237 -0.471509
lowerneck -4.84571 -0.11826 2.39482
upperneck -14.4648 0.322745 0.741288
head -3.86494 0.204985 -0.187866
rclavicle -1.66979e-014 1.2921e-014
rhumerus -21.3251 7.8198 -85.6555
rradius 50.6944
rwrist -5.42746
rhand -21.5616 -8.58431
rfingers 7.12502
rthumb 4.83205 -38.5092
lclavicle -1.66979e-014 1.2921e-014
lhumerus -20.2381 -6.90853 83.1904
lradius 39.7286
lwrist 23.2758
lhand -20.0002 11.8324
lfingers 7.12502
lthumb 6.33958 41.7175
rfemur -75.1432 -3.67117 25.5208
rtibia 66.3017
rfoot -5.87278 -14.7107
rtoes 5.17769
lfemur -46.3145 10.1348 -24.6744
ltibia 83.5267
lfoot -29.7865 -2.6071
ltoes -23.8503
318
root 32.7553 14.0458 -4.56533 -14.1287 89.618 332.446
lowerback 32.1729 -1.62116 0.206639
upperback 7.63793 -1.30198 -0.719551
thorax -8.93044 -0.301288 -0.486307
lowerneck -4.89738 -0.076579 2.40174
upperneck -14.4589 0.371134 0.680205
head -3.85268 0.231434 -0.210013
rclavicle 2.78299e-015 3.29983e-014
rhumerus -21.2953 7.87787 -85.6946
rradius 50.7791
rwrist -5.36632
rhand -21.5233 -8.57761
rfingers 7.12502
rthumb 4.86904 -38.5017
lclavicle 2.78299e-015 3.29983e-014
lhumerus -20.2465 -6.81345 83.1624
lradius 39.7508
lwrist 23.2404
lhand -19.9287 11.8323
lfingers 7.12502
lthumb 6.40869 41.7153
rfemur -75.3992 -3.45367 25.138
rtibia 65.9049
rfoot -4.8837 -14.3184
rtoes 3.68357
lfemur -46.5212 10.1572 -24.9859
ltibia 83.0734
lfoot -30.0376 -2.09003
ltoes -23.5148
319
root 32.6497 14.0632 -4.60469 -6.80153 89.2805 339.726
lowerback 32.5031 -1.56986 0.143577
upperback 7.2046 -1.26268 -0.764841
thorax -8.79318 -0.277544 -0.475274
lowerneck -4.93342 -0.0333942 2.41163
upperneck -14.4763 0.423863 0.626249
head -3.85166 0.259656 -0.230489
rclavicle -2.38542e-015 -1.41137e-014
rhumerus -21.2915 7.93919 -85.739
rradius 50.9044
rwrist -5.32357
rhand -21.4799 -8.57942
rfingers 7.12502
rthumb 4.911 -38.5025
lclavicle -2.38542e-015 -1.41137e-014
lhumerus -20.2826 -6.72848 83.1251
lradius 39.7926
lwrist 23.2282
lhand -19.8624 11.8342
lfingers 7.12502
lthumb 6.47266 41.7153
rfemur -75.6365 -3.22732 24.6897
rtibia 65.5484
rfoot -4.14179 -13.6999
rtoes 1.58323
lfemur -46.7384 10.1576 -25.2894
ltibia 82.6248
lfoot -30.2571 -1.59897
ltoes -23.1372
320
root 32.5458 14.0795 -4.64314 -3.97283 88.9541 342.51
lowerback 32.5714 -1.52237 0.0842185
upperback 7.19949 -1.22754 -0.797041
thorax -8.82469 -0.260849 -0.489452
lowerneck -4.94393 0.00762978 2.41949
upperneck -14.5183 0.477318 0.590046
head -3.86426 0.287604 -0.244923
rclavicle 1.2921e-014 1.59028e-015
rhumerus -21.3207 7.99553 -85.7877
rradius 51.0691
rwrist -5.30127
rhand -21.4391 -8.58476
rfingers 7.12502
rthumb 4.95037 -38.5069
lclavicle 1.2921e-014 1.59028e-015
lhumerus -20.3375 -6.65872 83.0812
lradius 39.8472
lwrist 23.2346
lhand -19.8062 11.848
lfingers 7.12502
lthumb 6.52688 41.7274
rfemur -75.8372 -3.01253 24.2017
rtibia 65.2551
rfoot -3.7012 -12.825
rtoes -1.02611
lfemur -46.9623 10.1265 -25.5764
ltibia 82.1934
lfoot -30.4434 -1.14166
ltoes -22.7147
321
root 32.4437 14.094 -4.68031 -2.48195 88.6506 343.963
lowerback 32.6561 -1.48327 0.0249318
upperback 7.1912 -1.20309 -0.832605
thorax -8.86624 -0.248904 -0.503304
lowerneck -4.93887 0.0495413 2.43883
upperneck -14.5724 0.534262 0.56747
head -3.88415 0.31613 -0.257016
rclavicle 2.50469e-014 2.0276e-014
rhumerus -21.3801 8.06006 -85.847
rradius 51.2658
rwrist -5.3142
rhand -21.4251 -8.57257
rfingers 7.12502
rthumb 4.96392 -38.4944
lclavicle 2.50469e-014 2.0276e-014
lhumerus -20.4038 -6.60772 83.0253
lradius 39.9094
lwrist 23.2647
lhand -19.779 11.8676
lfingers 7.12502
lthumb 6.55313 41.7462
rfemur -76.0003 -2.82837 23.7083
rtibia 65.0602
rfoot -3.57866 -11.7176
rtoes -3.90091
lfemur -47.1935 10.0629 -25.8441
ltibia 81.7903
lfoot -30.598 -0.710481
ltoes -22.262
322
root 32.3435 14.1064 -4.71594 -1.81459 88.3795 344.602
lowerback 32.7525 -1.45527 -0.0252567
upperback 7.18193 -1.18925 -0.868073
thorax -8.91372 -0.241764 -0.518077
lowerneck -4.92132 0.0894924 2.46593
upperneck -14.6303 0.590622 0.560825
head -3.9078 0.343246 -0.265258
rclavicle -1.66979e-014 7.95139e-015
rhumerus -21.4677 8.11944 -85.9136
rradius 51.4859
rwrist -5.34799
rhand -21.4082 -8.56487
rfingers 7.12502
rthumb 4.98017 -38.4863
lclavicle -1.66979e-014 7.95139e-015
lhumerus -20.4721 -6.57576 82.9617
lradius 39.9619
lwrist 23.3062
lhand -19.7889 11.8647
lfingers 7.12502
lthumb 6.54359 41.7436
rfemur -76.1319 -2.6931 23.2506
rtibia 65.0104
rfoot -3.77603 -10.479
rtoes -6.71846
lfemur -47.4377 9.97176 -26.0855
ltibia 81.4277
lfoot -30.7188 -0.319894
ltoes -21.7539
